<svg xmlns="http://www.w3.org/2000/svg" width="32" height="32" fill="none"><rect width="32" height="32" y=".98" fill="#586F1F" rx="16"/><g clip-path="url('#clip0_2_382')"><path fill="#fff" d="M16.744 11.292a2.7 2.7 0 0 0-.909-.854c-1.005-.576-2.3-.475-3.496.194-2.219 1.244-3.672 3.581-3.672 6.348 0 3.694 2.674 6.676 6.165 7.24q.58.094 1.168.094a7.31 7.31 0 0 0 6.799-4.562c.364-.898.545-1.86.534-2.828-.015-1.288-.532-2.868-1.348-4.132-.814-1.258-2.064-2.405-3.619-2.39-.758.001-1.276.418-1.622.892zm4.436 2.764a3.2 3.2 0 0 0-.841-.022l-.774-1.3-1.146.68.595 1a4.5 4.5 0 0 0-.71.416l-.012-.039c-.178-.54-.522-.983-.98-1.424l.002-.013c.046-.215.12-.493.23-.763.248-.611.537-.858.826-.858h.008c.86-.01 1.757.651 2.487 1.78q.17.263.316.542m-4.107 1.998c-.22.005-.445.03-.666.078a2.5 2.5 0 0 0-.708-.764 2.15 2.15 0 0 0-2.028-.262l-.216-.12 2.156-2.113-.934-.952-2.556 2.506c-.54-.156-1.045-.213-1.498-.15a5.8 5.8 0 0 1 2.37-2.481c.909-.51 1.691-.482 2.18-.201.466.268.854.874.757 1.958l-.03.335.251.224c.549.485.776.798.875 1.098.07.21.092.463.047.843m-1.873.67c-.57.476-.951 1.145-1.173 1.867l-1.983-2.176-.986.899 2.726 2.991c-.004.795.098 1.608.246 2.344A5.97 5.97 0 0 1 10 16.98c0-.693.193-1.071.42-1.236.213-.158.684-.286 1.646.07.348.128.75.326 1.211.612l.335.208.344-.194c.415-.233.732-.15.976.02.107.075.198.168.268.264m1.177 6.244 4.861-5.358-.988-.896-1.954 2.154.005-.676-1.334-.01-.015 2.167-1.656 1.825a10 10 0 0 1-.176-2.098c.043-1.17.51-2.132 1.202-2.512.286-.159.792-.22 1.192-.15l.594.103.163-.579c.085-.302.311-.625.665-.913.358-.29.775-.498 1.222-.611.534-.13.99-.062 1.29.144.261.18.525.548.55 1.302v.012l.002.107a5.974 5.974 0 0 1-5.623 5.988z"/></g></svg>