<svg xmlns="http://www.w3.org/2000/svg" width="24" height="25" fill="none"><path fill="#fff" d="M21.539 8.987a7 7 0 0 0-.448-2.359 4.9 4.9 0 0 0-2.807-2.803 7 7 0 0 0-2.33-.447c-1.027-.045-1.352-.058-3.956-.058s-2.936 0-3.955.058a7 7 0 0 0-2.33.447 4.9 4.9 0 0 0-2.807 2.803 7 7 0 0 0-.447 2.326c-.045 1.025-.06 1.35-.06 3.949s0 2.931.06 3.948a7 7 0 0 0 .447 2.328 4.9 4.9 0 0 0 2.808 2.802c.744.29 1.532.453 2.33.479 1.027.046 1.352.06 3.955.06s2.937 0 3.956-.06a7 7 0 0 0 2.33-.446 4.92 4.92 0 0 0 2.808-2.803c.28-.745.431-1.532.447-2.328.046-1.024.06-1.349.06-3.949-.002-2.6-.002-2.929-.062-3.947m-9.547 8.831a4.924 4.924 0 0 1-4.928-4.92 4.924 4.924 0 0 1 4.929-4.921 4.925 4.925 0 0 1 4.929 4.92 4.925 4.925 0 0 1-4.93 4.921m5.126-8.876a1.148 1.148 0 1 1 0-2.295 1.148 1.148 0 0 1 0 2.295" opacity=".8"/><path fill="#fff" d="M11.994 15.902a3.003 3.003 0 1 0 0-6.006 3.003 3.003 0 0 0 0 6.006" opacity=".8"/></svg>