<svg xmlns="http://www.w3.org/2000/svg" width="15" height="15" fill="none"><g clip-path="url('#clip0_2_1158')"><path fill="#000" d="M9.948 9.189h-.6l-.213-.205a4.935 4.935 0 1 0-7.558-.081 4.94 4.94 0 0 0 3.814 1.805 4.9 4.9 0 0 0 3.212-1.193l.205.213v.6l3.797 3.79 1.131-1.132-3.79-3.797zm-4.557 0A3.413 3.413 0 0 1 1.974 5.77a3.413 3.413 0 0 1 3.417-3.417A3.413 3.413 0 0 1 8.81 5.771 3.413 3.413 0 0 1 5.39 9.19"/></g><defs><clipPath id="clip0_2_1158"><path fill="#fff" d="M0 .38h14.58v14.58H0z"/></clipPath></defs></svg>