<svg xmlns="http://www.w3.org/2000/svg" width="24" height="25" fill="none"><path fill="#fff" d="M18.18 5.42c-1.02-.06-3.12-.12-6.3-.12h-.42q-4.59 0-6.12.18c-1.38.12-2.34.48-2.88.96-.48.42-.84 1.2-.96 2.22-.06.66-.12 2.04-.12 4.14v.3c0 1.98.06 3.36.18 4.02.18.96.48 1.68 1.08 2.1q.9.72 3.06.9c1.02.06 3.12.12 6.3.12h.42q4.59 0 6.12-.18c1.38-.12 2.34-.48 2.88-.96.48-.42.84-1.2.96-2.22.06-.66.12-2.04.12-4.14v-.3c0-1.98-.06-3.36-.18-4.02-.18-.96-.48-1.68-1.08-2.1q-.9-.72-3.06-.9m-2.34 7.38-6.6 3.96V8.84z" opacity=".8"/></svg>