<svg xmlns="http://www.w3.org/2000/svg" width="20" height="21" fill="none"><g clip-path="url('#clip0_2_345')"><path fill="#6D8434" d="M10.93 3.81a3.35 3.35 0 0 0-1.136-1.067c-1.257-.72-2.875-.594-4.37.242C2.65 4.54.834 7.461.834 10.92c0 4.617 3.342 8.344 7.705 9.05q.726.117 1.461.117a9.14 9.14 0 0 0 9.166-9.237c-.02-1.61-.665-3.586-1.685-5.165-1.017-1.573-2.58-3.007-4.523-2.988-.948.002-1.595.523-2.028 1.115zm5.546 3.454a4 4 0 0 0-1.053-.027l-.967-1.625-1.432.85.744 1.25a5.7 5.7 0 0 0-.888.52l-.015-.048c-.223-.675-.652-1.23-1.226-1.78l.004-.017c.057-.27.149-.617.286-.954.311-.763.672-1.073 1.034-1.073h.009c1.076-.011 2.197.815 3.11 2.226q.211.33.394.677zm-5.134 2.498a4.5 4.5 0 0 0-.833.097 3.1 3.1 0 0 0-.885-.954 2.68 2.68 0 0 0-2.535-.328l-.27-.15 2.694-2.64-1.167-1.19-3.195 3.132c-.675-.196-1.306-.266-1.873-.188A7.25 7.25 0 0 1 6.241 4.44c1.136-.637 2.114-.602 2.725-.25.583.334 1.068 1.092.946 2.447l-.038.42.315.279c.685.605.97.997 1.094 1.372.086.262.115.58.059 1.055M9 10.599c-.712.596-1.19 1.432-1.467 2.335l-2.478-2.72-1.233 1.123 3.407 3.74c-.004.993.123 2.01.308 2.93A7.46 7.46 0 0 1 2.5 10.92c0-.866.24-1.339.524-1.545.268-.197.855-.358 2.058.087.435.16.939.407 1.515.765l.418.26.43-.242c.52-.291.916-.188 1.22.025.133.094.247.21.335.33m1.47 7.806 6.077-6.698-1.234-1.12-2.443 2.693.006-.845-1.667-.012-.02 2.708-2.069 2.28c-.157-.85-.25-1.764-.22-2.622.053-1.462.637-2.664 1.502-3.14.358-.197.99-.275 1.49-.187l.742.13.205-.725c.107-.377.39-.782.83-1.142.448-.362.97-.622 1.528-.763.668-.163 1.237-.078 1.612.18.328.225.657.685.688 1.628v.015l.002.134a7.467 7.467 0 0 1-7.028 7.485"/></g><defs><clipPath id="clip0_2_345"><path fill="#fff" d="M0 .92h20v20H0z"/></clipPath></defs></svg>