<svg width="15" height="15" viewBox="0 0 15 15" fill="none" xmlns="http://www.w3.org/2000/svg">
<g clip-path="url(#clip0_2_1158)">
<path d="M9.94757 9.18858H9.34751L9.13473 8.98355C9.90477 8.0906 10.328 6.9505 10.3271 5.77139C10.3273 4.79506 10.0379 3.84062 9.49547 3.02884C8.95304 2.21706 8.18198 1.58444 7.27988 1.21104C6.60566 0.932072 5.87796 0.806061 5.14919 0.842076C4.42042 0.878091 3.7087 1.07524 3.06526 1.41932C2.42183 1.7634 1.86268 2.24587 1.42808 2.83198C0.993475 3.41809 0.694226 4.09327 0.551874 4.80891C0.409522 5.52455 0.427608 6.26285 0.604829 6.97066C0.78205 7.67847 1.114 8.33819 1.57678 8.90231C2.03956 9.46644 2.62166 9.92095 3.28117 10.2331C3.94068 10.5453 4.6612 10.7073 5.39086 10.7076C6.6133 10.7076 7.73733 10.2598 8.60302 9.51526L8.80805 9.72804V10.3281L12.6048 14.1175L13.7361 12.9862L9.94666 9.18949L9.94757 9.18858ZM5.39132 9.18858C3.50047 9.18858 1.97413 7.66223 1.97413 5.77139C1.97413 3.88055 3.50047 2.3542 5.39132 2.3542C7.28216 2.3542 8.80851 3.88055 8.80851 5.77139C8.80851 7.66223 7.28216 9.18858 5.39132 9.18858Z" fill="black"/>
</g>
<defs>
<clipPath id="clip0_2_1158">
<rect width="14.58" height="14.58" fill="white" transform="translate(0 0.380005)"/>
</clipPath>
</defs>
</svg>
