<svg width="18" height="19" viewBox="0 0 18 19" fill="none" xmlns="http://www.w3.org/2000/svg">
<g clip-path="url(#clip0_2_177)">
<g clip-path="url(#clip1_2_177)">
<path d="M2.70005 1.81982C2.46135 1.81982 2.23244 1.91465 2.06365 2.08343C1.89487 2.25221 1.80005 2.48113 1.80005 2.71982C1.80005 2.95852 1.89487 3.18744 2.06365 3.35622C2.23244 3.525 2.46135 3.61982 2.70005 3.61982H3.79805L4.07255 4.71962C4.07528 4.73229 4.07828 4.74489 4.08155 4.75742L5.30375 9.64442L4.50005 10.4472C3.36605 11.5812 4.16885 13.5198 5.77265 13.5198H13.5C13.7387 13.5198 13.9677 13.425 14.1364 13.2562C14.3052 13.0874 14.4 12.8585 14.4 12.6198C14.4 12.3811 14.3052 12.1522 14.1364 11.9834C13.9677 11.8146 13.7387 11.7198 13.5 11.7198H5.77265L6.67265 10.8198H12.6C12.7671 10.8197 12.9309 10.7731 13.073 10.6852C13.2151 10.5973 13.33 10.4716 13.4046 10.3221L16.1046 4.92212C16.1732 4.78495 16.2056 4.63253 16.1987 4.47933C16.1918 4.32613 16.1458 4.17724 16.0652 4.04678C15.9846 3.91632 15.872 3.80862 15.7381 3.73389C15.6042 3.65917 15.4534 3.61991 15.3 3.61982H5.65205L5.37305 2.50112C5.32429 2.3065 5.21191 2.13375 5.05374 2.01031C4.89557 1.88688 4.70068 1.81983 4.50005 1.81982H2.70005ZM14.4 15.7698C14.4 16.1279 14.2578 16.4712 14.0046 16.7244C13.7515 16.9776 13.4081 17.1198 13.05 17.1198C12.692 17.1198 12.3486 16.9776 12.0955 16.7244C11.8423 16.4712 11.7 16.1279 11.7 15.7698C11.7 15.4118 11.8423 15.0684 12.0955 14.8152C12.3486 14.5621 12.692 14.4198 13.05 14.4198C13.4081 14.4198 13.7515 14.5621 14.0046 14.8152C14.2578 15.0684 14.4 15.4118 14.4 15.7698ZM5.85005 17.1198C6.20809 17.1198 6.55147 16.9776 6.80464 16.7244C7.05782 16.4712 7.20005 16.1279 7.20005 15.7698C7.20005 15.4118 7.05782 15.0684 6.80464 14.8152C6.55147 14.5621 6.20809 14.4198 5.85005 14.4198C5.49201 14.4198 5.14863 14.5621 4.89545 14.8152C4.64228 15.0684 4.50005 15.4118 4.50005 15.7698C4.50005 16.1279 4.64228 16.4712 4.89545 16.7244C5.14863 16.9776 5.49201 17.1198 5.85005 17.1198Z" fill="#E8E8E2"/>
</g>
</g>
<defs>
<clipPath id="clip0_2_177">
<rect width="18" height="18" fill="white" transform="translate(0 0.919922)"/>
</clipPath>
<clipPath id="clip1_2_177">
<rect width="18" height="18" fill="white" transform="translate(0 0.919922)"/>
</clipPath>
</defs>
</svg>
