<svg width="39" height="38" viewBox="0 0 39 38" fill="none" xmlns="http://www.w3.org/2000/svg">
<path d="M13.0799 10.89C12.8412 10.89 12.6123 10.9848 12.4435 11.1536C12.2748 11.3224 12.1799 11.5513 12.1799 11.79C12.1799 12.0287 12.2748 12.2576 12.4435 12.4264C12.6123 12.5952 12.8412 12.69 13.0799 12.69H14.1779L14.4524 13.7897L14.4614 13.8274L15.6837 18.7144L14.8799 19.5171C13.7459 20.6511 14.5486 22.5894 16.1523 22.5894H23.8794C24.1181 22.5894 24.347 22.4946 24.5158 22.3258C24.6845 22.1571 24.7794 21.9281 24.7794 21.6894C24.7794 21.4508 24.6845 21.2218 24.5158 21.0531C24.347 20.8843 24.1181 20.7894 23.8794 20.7894H16.1517L17.0517 19.8894H22.9788C23.1459 19.8893 23.3097 19.8426 23.4519 19.7547C23.594 19.6668 23.7089 19.5411 23.7837 19.3916L26.4837 13.9916C26.5524 13.8544 26.585 13.7019 26.5777 13.5489C26.5704 13.3959 26.5248 13.2469 26.4444 13.1164C26.3639 12.9858 26.2514 12.8781 26.1174 12.8033C25.9835 12.7286 25.8327 12.6894 25.6794 12.6894H16.0314L15.7524 11.5706C15.7036 11.376 15.5912 11.2032 15.4331 11.0797C15.2749 10.9562 15.08 10.889 14.8794 10.8889H13.0794L13.0799 10.89ZM24.7799 24.84C24.7836 25.0196 24.7514 25.1981 24.6852 25.365C24.619 25.532 24.5202 25.6841 24.3945 25.8124C24.2688 25.9407 24.1188 26.0426 23.9532 26.1122C23.7876 26.1817 23.6098 26.2176 23.4302 26.2176C23.2506 26.2176 23.0728 26.1817 22.9072 26.1122C22.7417 26.0426 22.5916 25.9407 22.4659 25.8124C22.3402 25.6841 22.2414 25.532 22.1752 25.365C22.109 25.1981 22.0768 25.0196 22.0805 24.84C22.0877 24.4868 22.2331 24.1505 22.4854 23.9033C22.7377 23.656 23.0769 23.5176 23.4302 23.5176C23.7835 23.5176 24.1227 23.656 24.375 23.9033C24.6274 24.1505 24.7727 24.4868 24.7799 24.84ZM16.2299 26.19C16.5881 26.1899 16.9316 26.0476 17.1848 25.7942C17.4381 25.5409 17.5803 25.1974 17.5802 24.8392C17.5801 24.481 17.4378 24.1375 17.1844 23.8843C16.9311 23.631 16.5876 23.4888 16.2294 23.4889C15.8712 23.489 15.5277 23.6313 15.2745 23.8847C15.0212 24.138 14.879 24.4815 14.8791 24.8397C14.8792 25.1979 15.0215 25.5414 15.2749 25.7946C15.5282 26.0479 15.8717 26.1901 16.2299 26.19Z" fill="#E8E8E2"/>
</svg>
