<svg width="32" height="32" viewBox="0 0 32 32" fill="none" xmlns="http://www.w3.org/2000/svg">
<rect y="0.980011" width="32" height="32" rx="16" fill="#586F1F"/>
<g clip-path="url(#clip0_2_382)">
<path d="M16.744 11.292C16.5125 10.9401 16.2012 10.6477 15.8355 10.4385C14.83 9.86201 13.535 9.96301 12.3395 10.6325C10.12 11.876 8.66699 14.213 8.66699 16.98C8.66699 20.6735 11.3405 23.6555 14.8315 24.22C15.2179 24.2823 15.6086 24.3136 16 24.3135C16.9687 24.3167 17.9283 24.1274 18.8232 23.7566C19.7181 23.3858 20.5304 22.8409 21.213 22.1535C21.8956 21.466 22.4346 20.6496 22.7985 19.7518C23.1625 18.854 23.3442 17.8927 23.333 16.924C23.3175 15.636 22.801 14.0555 21.9845 12.792C21.171 11.5335 19.9205 10.3865 18.3665 10.4015C17.608 10.403 17.09 10.82 16.744 11.2935V11.292ZM21.1805 14.0555C20.9021 14.0107 20.6189 14.0033 20.3385 14.0335L19.565 12.7335L18.4195 13.4135L19.014 14.4135C18.7652 14.5305 18.5275 14.6699 18.304 14.83C18.3001 14.8172 18.2961 14.8043 18.292 14.7915C18.114 14.2515 17.77 13.808 17.3115 13.3675L17.314 13.354C17.36 13.1385 17.4335 12.8605 17.5435 12.5905C17.792 11.98 18.081 11.7325 18.37 11.7325H18.3775C19.238 11.723 20.135 12.384 20.865 13.513C20.9785 13.6885 21.0835 13.869 21.181 14.0545L21.1805 14.055V14.0555ZM17.0735 16.0535C16.8535 16.059 16.6275 16.0835 16.407 16.1315C16.227 15.8303 15.9858 15.5701 15.699 15.368C15.1725 14.998 14.451 14.8145 13.671 15.106C13.5995 15.0649 13.5275 15.0247 13.455 14.9855L15.6105 12.873L14.677 11.921L12.1205 14.427C11.5805 14.2705 11.076 14.2145 10.6225 14.277C11.1443 13.2299 11.9704 12.3649 12.9925 11.7955C13.902 11.286 14.684 11.314 15.173 11.595C15.6395 11.8625 16.027 12.469 15.9295 13.553L15.8995 13.8885L16.1515 14.112C16.6995 14.5965 16.9275 14.91 17.026 15.2095C17.0955 15.4195 17.118 15.673 17.0735 16.0535ZM15.2 16.7235C14.6305 17.2 14.2485 17.869 14.0265 18.5915L12.044 16.415L11.058 17.3135L13.7835 20.3055C13.78 21.1 13.882 21.9135 14.03 22.649C12.85 22.2441 11.8265 21.4795 11.1036 20.4627C10.3807 19.4459 9.99477 18.2281 9.99999 16.9805C9.99999 16.287 10.1925 15.909 10.4195 15.744C10.6335 15.5865 11.1035 15.458 12.066 15.8135C12.414 15.942 12.8165 16.1395 13.2775 16.426L13.612 16.634L13.956 16.4405C14.3715 16.207 14.6885 16.29 14.932 16.4605C15.0385 16.535 15.13 16.628 15.2 16.7235ZM16.3765 22.968L21.238 17.61L20.2505 16.714L18.296 18.868L18.3005 18.192L16.967 18.1825L16.9515 20.349L15.296 22.1735C15.1705 21.493 15.096 20.7615 15.12 20.0755C15.1625 18.9055 15.63 17.944 16.3215 17.5635C16.608 17.4055 17.114 17.3435 17.514 17.414L18.1075 17.5175L18.271 16.938C18.3565 16.636 18.5825 16.3125 18.9355 16.0245C19.294 15.7349 19.7111 15.5266 20.158 15.414C20.692 15.2835 21.1475 15.3515 21.4475 15.558C21.7095 15.738 21.973 16.106 21.9975 16.8605V16.8725L21.9995 16.979C22.0058 18.5069 21.4265 19.9791 20.3806 21.0929C19.3347 22.2067 17.9017 22.8774 16.3765 22.967V22.968Z" fill="white"/>
</g>
</svg>