<svg width="24" height="25" viewBox="0 0 24 25" fill="none" xmlns="http://www.w3.org/2000/svg">
<path opacity="0.8" d="M18.18 5.4198C17.16 5.3598 15.06 5.2998 11.88 5.2998H11.46C8.4 5.2998 6.36 5.3598 5.34 5.4798C3.96 5.5998 3 5.9598 2.46 6.4398C1.98 6.8598 1.62 7.6398 1.5 8.6598C1.44 9.3198 1.38 10.6998 1.38 12.7998V13.0998C1.38 15.0798 1.44 16.4598 1.56 17.1198C1.74 18.0798 2.04 18.7998 2.64 19.2198C3.24 19.6998 4.26 19.9998 5.7 20.1198C6.72 20.1798 8.82 20.2398 12 20.2398H12.42C15.48 20.2398 17.52 20.1798 18.54 20.0598C19.92 19.9398 20.88 19.5798 21.42 19.0998C21.9 18.6798 22.26 17.8998 22.38 16.8798C22.44 16.2198 22.5 14.8398 22.5 12.7398V12.4398C22.5 10.4598 22.44 9.0798 22.32 8.4198C22.14 7.4598 21.84 6.7398 21.24 6.3198C20.64 5.8398 19.62 5.5398 18.18 5.4198ZM15.84 12.7998L9.24 16.7598V8.8398L15.84 12.7998Z" fill="white"/>
</svg>
