<svg width="24" height="25" viewBox="0 0 24 25" fill="none" xmlns="http://www.w3.org/2000/svg">
<path opacity="0.8" d="M21.5385 8.98682C21.5275 8.18059 21.3762 7.38243 21.0915 6.62807C20.8443 5.99134 20.4669 5.4132 19.9835 4.93059C19.5001 4.44799 18.9214 4.07155 18.2843 3.82532C17.538 3.54594 16.7499 3.39481 15.9533 3.37832C14.9273 3.33257 14.6025 3.31982 11.9985 3.31982C9.39451 3.31982 9.06151 3.31982 8.04301 3.37832C7.24686 3.39488 6.45924 3.54601 5.71351 3.82532C5.07624 4.07131 4.49737 4.44766 4.01396 4.9303C3.53055 5.41293 3.15327 5.9912 2.90626 6.62807C2.6256 7.37213 2.47442 8.15874 2.45926 8.95382C2.41351 9.97907 2.39926 10.3038 2.39926 12.9026C2.39926 15.5013 2.39926 15.8343 2.45926 16.8513C2.47485 17.6471 2.62602 18.4344 2.90626 19.1793C3.15381 19.8158 3.53139 20.3937 4.01488 20.876C4.49838 21.3584 5.07716 21.7346 5.71426 21.9806C6.45789 22.2715 7.24567 22.4336 8.04376 22.4598C9.07051 22.5056 9.39601 22.5198 11.9993 22.5198C14.6025 22.5198 14.9363 22.5198 15.9548 22.4598C16.7515 22.4444 17.5397 22.2935 18.2858 22.0136C18.9227 21.767 19.5013 21.3905 19.9846 20.9079C20.468 20.4253 20.8454 19.8474 21.093 19.2108C21.373 18.4658 21.5242 17.6786 21.54 16.8828C21.5858 15.8591 21.6 15.5343 21.6 12.9341C21.5978 10.3346 21.5978 10.0053 21.5385 8.98682ZM11.9925 17.8181C9.26926 17.8181 7.06351 15.6161 7.06351 12.8973C7.06351 10.1786 9.26926 7.97657 11.9925 7.97657C14.7135 7.97657 16.9215 10.1786 16.9215 12.8973C16.9215 15.6161 14.7135 17.8181 11.9925 17.8181ZM17.118 8.94182C16.8137 8.94182 16.5218 8.82093 16.3066 8.60573C16.0914 8.39053 15.9705 8.09866 15.9705 7.79432C15.9705 7.48999 16.0914 7.19812 16.3066 6.98292C16.5218 6.76772 16.8137 6.64682 17.118 6.64682C17.4223 6.64682 17.7142 6.76772 17.9294 6.98292C18.1446 7.19812 18.2655 7.48999 18.2655 7.79432C18.2655 8.09866 18.1446 8.39053 17.9294 8.60573C17.7142 8.82093 17.4223 8.94182 17.118 8.94182Z" fill="white"/>
<path opacity="0.8" d="M11.994 15.902C12.7906 15.902 13.5545 15.5856 14.1177 15.0223C14.681 14.4591 14.9974 13.6952 14.9974 12.8986C14.9974 12.1021 14.681 11.3382 14.1177 10.7749C13.5545 10.2117 12.7906 9.89526 11.994 9.89526C11.1975 9.89526 10.4335 10.2117 9.8703 10.7749C9.30706 11.3382 8.99063 12.1021 8.99063 12.8986C8.99063 13.6952 9.30706 14.4591 9.8703 15.0223C10.4335 15.5856 11.1975 15.902 11.994 15.902Z" fill="white"/>
</svg>
