<svg width="20" height="21" viewBox="0 0 20 21" fill="none" xmlns="http://www.w3.org/2000/svg">
<g clip-path="url(#clip0_2_345)">
<path d="M10.93 3.80982C10.6406 3.36988 10.2515 3.00437 9.79436 2.74294C8.53749 2.02232 6.91874 2.14857 5.42437 2.98544C2.64999 4.53982 0.83374 7.46107 0.83374 10.9198C0.83374 15.5367 4.17562 19.2642 8.53937 19.9698C9.02234 20.0477 9.51078 20.0868 9.99999 20.0867C11.2108 20.0907 12.4104 19.8541 13.529 19.3905C14.6477 18.927 15.6631 18.2459 16.5162 17.3867C17.3695 16.5274 18.0432 15.5068 18.4982 14.3846C18.9531 13.2623 19.1802 12.0607 19.1662 10.8498C19.1469 9.23982 18.5012 7.26419 17.4806 5.68482C16.4637 4.11169 14.9006 2.67794 12.9581 2.69669C12.01 2.69857 11.3625 3.21982 10.93 3.81169V3.80982ZM16.4756 7.26419C16.1276 7.20819 15.7736 7.19894 15.4231 7.23669L14.4562 5.61169L13.0244 6.46169L13.7675 7.71169C13.4565 7.85792 13.1594 8.03219 12.88 8.23232C12.8751 8.21625 12.8701 8.20021 12.865 8.18419C12.6425 7.50919 12.2125 6.95482 11.6394 6.40419L11.6425 6.38732C11.7 6.11794 11.7919 5.77044 11.9294 5.43294C12.24 4.66982 12.6012 4.36044 12.9625 4.36044H12.9719C14.0475 4.34857 15.1687 5.17482 16.0812 6.58607C16.2231 6.80544 16.3544 7.03107 16.4762 7.26294L16.4756 7.26357V7.26419ZM11.3419 9.76169C11.0669 9.76857 10.7844 9.79919 10.5087 9.85919C10.2838 9.48262 9.98229 9.15748 9.62374 8.90482C8.96562 8.44232 8.06374 8.21294 7.08874 8.57732C6.99942 8.52589 6.90942 8.47568 6.81874 8.42669L9.51311 5.78607L8.34624 4.59607L5.15062 7.72857C4.47562 7.53294 3.84499 7.46294 3.27812 7.54107C3.93038 6.23213 4.96303 5.1509 6.24062 4.43919C7.37749 3.80232 8.35499 3.83732 8.96624 4.18857C9.54937 4.52294 10.0337 5.28107 9.91187 6.63607L9.87436 7.05544L10.1894 7.33482C10.8744 7.94044 11.1594 8.33232 11.2825 8.70669C11.3694 8.96919 11.3975 9.28607 11.3419 9.76169ZM8.99999 10.5992C8.28812 11.1948 7.81062 12.0311 7.53312 12.9342L5.05499 10.2136L3.82249 11.3367L7.22937 15.0767C7.22499 16.0698 7.35249 17.0867 7.53749 18.0061C6.06244 17.4999 4.78315 16.5442 3.87954 15.2732C2.97593 14.0022 2.49346 12.4799 2.49999 10.9204C2.49999 10.0536 2.74062 9.58107 3.02437 9.37482C3.29187 9.17794 3.87937 9.01732 5.08249 9.46169C5.51749 9.62232 6.02062 9.86919 6.59687 10.2273L7.01499 10.4873L7.44499 10.2454C7.96437 9.95357 8.36062 10.0573 8.66499 10.2704C8.79812 10.3636 8.91249 10.4798 8.99999 10.5992ZM10.4706 18.4048L16.5475 11.7073L15.3131 10.5873L12.87 13.2798L12.8756 12.4348L11.2087 12.4229L11.1894 15.1311L9.11999 17.4117C8.96312 16.5611 8.86999 15.6467 8.89999 14.7892C8.95312 13.3267 9.53749 12.1248 10.4019 11.6492C10.76 11.4517 11.3925 11.3742 11.8925 11.4623L12.6344 11.5917L12.8387 10.8673C12.9456 10.4898 13.2281 10.0854 13.6694 9.72544C14.1175 9.36342 14.6389 9.10305 15.1975 8.96232C15.865 8.79919 16.4344 8.88419 16.8094 9.14232C17.1369 9.36732 17.4662 9.82732 17.4969 10.7704V10.7854L17.4994 10.9186C17.5073 12.8284 16.7831 14.6687 15.4757 16.0609C14.1683 17.4532 12.3772 18.2915 10.4706 18.4036V18.4048Z" fill="#6D8434"/>
</g>
<defs>
<clipPath id="clip0_2_345">
<rect width="20" height="20" fill="white" transform="translate(0 0.919922)"/>
</clipPath>
</defs>
</svg>
